PathFileType	4	(X/Y/Z)	/Users/itak/Documents/Research/Walk-IL/dataset/trc/00384_00012.trc
DataRate	CameraRate	NumFrames	NumMarkers	Units	OrigDataRate	OrigDataStartFrame	OrigNumFrames
100.000000	100.000000	4	55	mm	100.000000	208	557
Frame#	Time	RPSI			LPSI			L3			STRN			T10			C7			CLAV			RBAK			LBAK			LSHO			LUPA			LAEL			LAOL			LWTS			LWPS			LFRA			LIFD			LHPS			LHTS			RSHO			RUPA			RAEL			RAOL			RWPS			RFRA			RIFD			RHPS			RBHD			LFHD			RFHD			LBHD			LHIP			RHIP			RASI			LASI			LKNE			LTHI			LANK			LTIP			LTOE			LMT1			LMT5			LHEE			RKNE			RTHI			RANK			RTIP			RTOE			RMT1			RMT5			RHEE			RHTS			RWTS			*53			*54			
		X1	Y1	Z1	X2	Y2	Z2	X3	Y3	Z3	X4	Y4	Z4	X5	Y5	Z5	X6	Y6	Z6	X7	Y7	Z7	X8	Y8	Z8	X9	Y9	Z9	X10	Y10	Z10	X11	Y11	Z11	X12	Y12	Z12	X13	Y13	Z13	X14	Y14	Z14	X15	Y15	Z15	X16	Y16	Z16	X17	Y17	Z17	X18	Y18	Z18	X19	Y19	Z19	X20	Y20	Z20	X21	Y21	Z21	X22	Y22	Z22	X23	Y23	Z23	X24	Y24	Z24	X25	Y25	Z25	X26	Y26	Z26	X27	Y27	Z27	X28	Y28	Z28	X29	Y29	Z29	X30	Y30	Z30	X31	Y31	Z31	X32	Y32	Z32	X33	Y33	Z33	X34	Y34	Z34	X35	Y35	Z35	X36	Y36	Z36	X37	Y37	Z37	X38	Y38	Z38	X39	Y39	Z39	X40	Y40	Z40	X41	Y41	Z41	X42	Y42	Z42	X43	Y43	Z43	X44	Y44	Z44	X45	Y45	Z45	X46	Y46	Z46	X47	Y47	Z47	X48	Y48	Z48	X49	Y49	Z49	X50	Y50	Z50	X51	Y51	Z51	X52	Y52	Z52	X53	Y53	Z53	X54	Y54	Z54	X55	Y55	Z55	

209	2.08	-1488.85400390625	989.2322998046875	145.1441497802734	-1497.658081054688	977.4112548828125	12.28432655334473	-1491.048828125	1064.5751953125	88.50953674316406	-1226.903686523438	1197.480712890625	78.52349853515625	-1489.468872070312	1169.763061523438	88.05010986328125	-1418.52978515625	1411.38525390625	83.58619689941406	-1270.724731445312	1320.883056640625	81.68721771240234	-1474.53857421875	1270.632568359375	148.3596954345703	-1442.79248046875	1378.865966796875	-18.10463333129883	-1358.744018554688	1387.193237304688	-73.79306030273438	-1412.578857421875	1279.930419921875	-140.6137542724609	-1441.322875976562	1088.1435546875	-176.1224975585938	-1486.186279296875	1071.730590820312	-105.5752410888672	-1359.362548828125	869.0277099609375	-163.1354522705078	-1420.967407226562	860.3980102539062	-214.5142669677734	-1437.33203125	984.3292236328125	-194.788330078125	-1360.922607421875	692.3021850585938	-174.9925079345703	-1405.755981445312	775.7462768554688	-215.8142395019531	-1344.292846679688	775.2918701171875	-194.3111877441406	-1361.836547851562	1384.045166015625	237.8144683837891	-1383.675048828125	1320.770751953125	296.3456115722656	-1401.535400390625	1060.101928710938	340.2980041503906	-1423.885620117188	1049.944702148438	248.3127899169922	-1324.388916015625	831.0072021484375	371.1250610351562	-1378.083984375	993.4924926757812	356.9074401855469	-1296.651611328125	667.2250366210938	310.8096313476562	-1326.273071289062	741.0947875976562	368.45654296875	-1376.502075195312	1590.963134765625	161.6650848388672	-1244.015014648438	1594.8671875	13.47702598571777	-1245.743530273438	1602.197509765625	135.9649200439453	-1391.037475585938	1579.85400390625	0.6523779630661011	-1416.756958007812	968.9342041015625	-100.682975769043	-1407.54931640625	954.4021606445312	258.1600036621094	-1274.510986328125	952.9474487304688	206.6263732910156	-1297.53955078125	961.7598876953125	-55.75530624389648	-1193.952026367188	509.0595703125	-73.12997436523438	-1252.618896484375	637.7462768554688	-87.62918853759766	-1363.685180664062	85.89200592041016	-48.30812835693359	-1277.861206054688	285.5097045898438	-74.57310485839844	-1152.114135742188	72.49379730224609	3.811868190765381	-1226.052124023438	75.01392364501953	39.84675979614258	-1239.451416015625	64.90992736816406	-65.694580078125	-1397.182006835938	91.97765350341797	10.67460441589355	-1430.903930664062	463.3092651367188	218.7122497558594	-1358.387939453125	718.2775268554688	252.2948913574219	-1530.739013671875	53.4317741394043	158.3223724365234	-1437.496337890625	336.6804809570312	194.74365234375	-1357.497802734375	52.38021850585938	87.75762939453125	-1432.826049804688	52.33209228515625	60.66168594360352	-1446.912475585938	46.72064208984375	159.3283081054688	-1607.288330078125	43.18755340576172	108.3711700439453	-1272.475830078125	731.8345336914062	331.0576477050781	-1278.1611328125	840.297119140625	313.2518920898438	nan	nan	nan	nan	nan	nan	
210	2.09	-1483.996215820312	988.7689819335938	145.0331115722656	-1492.5302734375	977.0020141601562	12.11321544647217	-1485.8984375	1064.071166992188	88.71588897705078	-1221.516479492188	1196.48974609375	79.08715057373047	-1484.109008789062	1169.241088867188	88.51743316650391	-1412.670654296875	1410.674560546875	84.22001647949219	-1265.086669921875	1319.9873046875	82.24378967285156	-1468.996215820312	1270.096313476562	149.1407623291016	-1437.125122070312	1378.234375	-17.35363578796387	-1353.203247070312	1386.350830078125	-73.23761749267578	-1407.8115234375	1279.25439453125	-139.6118316650391	-1438.250366210938	1087.629150390625	-174.4260711669922	-1482.648315429688	1071.668823242188	-103.4344482421875	-1359.666259765625	867.0349731445312	-161.8061065673828	-1421.949829101562	859.4205322265625	-212.4915618896484	-1436.01025390625	983.6376342773438	-192.9187622070312	-1364.990966796875	690.389404296875	-172.9561462402344	-1408.451049804688	774.593994140625	-213.8728332519531	-1346.880126953125	772.881103515625	-192.7525024414062	-1355.98291015625	1383.341430664062	238.4108123779297	-1377.69189453125	1320.06494140625	297.0842895507812	-1394.584716796875	1059.274291992188	340.9900207519531	-1417.100708007812	1049.004028320312	248.9976501464844	-1315.321899414062	830.7864379882812	371.4474792480469	-1370.615478515625	992.7225952148438	357.4500732421875	-1286.793579101562	667.1492919921875	310.9960021972656	-1316.537963867188	740.8428955078125	368.7927551269531	-1370.254150390625	1590.425659179688	162.2567596435547	-1238.015747070312	1593.69287109375	13.78337097167969	-1239.465087890625	1601.257446289062	136.2561492919922	-1385.11474609375	1579.01708984375	1.259140968322754	-1411.228271484375	968.6516723632812	-100.5259094238281	-1403.265869140625	953.602294921875	258.2217102050781	-1270.1201171875	951.8442993164062	207.2572937011719	-1291.986572265625	961.52392578125	-55.02133941650391	-1185.656494140625	510.1622009277344	-70.89230346679688	-1245.453735351562	638.3665771484375	-86.28214263916016	-1342.34375	81.90102386474609	-45.67520904541016	-1262.986450195312	284.06787109375	-72.24140930175781	-1130.642456054688	74.36297607421875	6.481921672821045	-1204.692993164062	74.97992706298828	42.51444625854492	-1217.734008789062	64.35218048095703	-63.04650115966797	-1375.730224609375	86.78217315673828	13.40812969207764	-1429.786865234375	462.8943481445312	219.0317230224609	-1355.433959960938	717.4752807617188	252.517333984375	-1530.67236328125	53.43241500854492	158.2511291503906	-1436.836181640625	336.3388366699219	195.0545043945312	-1357.3427734375	52.113525390625	88.09263610839844	-1432.68359375	52.17134094238281	60.754638671875	-1446.779541015625	46.56003189086914	159.5158538818359	-1607.142944335938	43.22905731201172	108.3011093139648	-1262.827270507812	732.0314331054688	331.1403198242188	-1269.458129882812	840.4618530273438	313.4442443847656	nan	nan	nan	nan	nan	nan	
211	2.1	-1479.035522460938	988.1600341796875	144.8280639648438	-1487.218017578125	976.3928833007812	11.8731575012207	-1480.581176757812	1063.45751953125	88.81204986572266	-1215.97021484375	1195.3525390625	79.63079071044922	-1478.543090820312	1168.592651367188	88.84410858154297	-1406.644165039062	1409.859130859375	84.79643249511719	-1259.301635742188	1318.9423828125	82.78253936767578	-1463.33056640625	1269.45166015625	149.8367309570312	-1431.263916015625	1377.487060546875	-16.66884994506836	-1347.436401367188	1385.37890625	-72.72182464599609	-1402.8349609375	1278.447509765625	-138.6460876464844	-1434.9541015625	1086.993896484375	-172.7171325683594	-1478.915283203125	1071.497436523438	-101.2938537597656	-1359.765014648438	864.9557495117188	-160.27734375	-1422.75537109375	858.4014892578125	-210.365478515625	-1434.5048828125	982.8599243164062	-190.9983825683594	-1369.172485351562	688.3941040039062	-170.6438140869141	-1410.997924804688	773.3922729492188	-211.7581329345703	-1349.366943359375	770.3964233398438	-190.8959808349609	-1350.0078125	1382.490966796875	238.9841461181641	-1371.629028320312	1319.230224609375	297.7918395996094	-1387.544799804688	1058.321899414062	341.7284851074219	-1410.265747070312	1047.90478515625	249.7244415283203	-1305.9013671875	830.5369262695312	371.7405090332031	-1362.9912109375	991.83349609375	358.0061645507812	-1276.337890625	667.10888671875	311.0926208496094	-1306.35009765625	740.5731201171875	369.0699768066406	-1363.900024414062	1589.752685546875	162.7905883789062	-1231.900268554688	1592.407470703125	14.06870174407959	-1233.096557617188	1600.228637695312	136.5101013183594	-1379.072875976562	1578.013916015625	1.814610838890076	-1405.470947265625	968.2094116210938	-100.4615173339844	-1398.900146484375	952.69482421875	258.2382507324219	-1265.646118164062	950.6389770507812	207.8755493164062	-1286.301635742188	961.0740356445312	-54.2979736328125	-1177.49169921875	510.947998046875	-68.67532348632812	-1238.338745117188	638.6963500976562	-84.97093963623047	-1320.319213867188	77.82891082763672	-42.95719146728516	-1247.832153320312	282.4284973144531	-69.89154815673828	-1108.755737304688	76.35943603515625	9.534058570861816	-1182.94873046875	75.04323577880859	45.42419052124023	-1195.42333984375	63.80738067626953	-60.15609741210938	-1353.730590820312	81.60051727294922	16.13349151611328	-1428.239379882812	462.3832702636719	219.2427215576172	-1352.235107421875	716.5882568359375	252.6707611083984	-1530.560424804688	53.45981979370117	158.1163482666016	-1435.8798828125	335.9024047851562	195.2164154052734	-1357.140991210938	51.68714904785156	88.34084320068359	-1432.498291015625	51.90793228149414	60.80057907104492	-1446.613159179688	46.4167366027832	159.6466064453125	-1606.984008789062	43.29619598388672	108.1754989624023	-1252.582397460938	732.3271484375	331.1841430664062	-1260.453979492188	840.6687622070312	313.6333312988281	nan	nan	nan	nan	nan	nan	
212	2.11	-1473.970703125	987.4019775390625	144.5269317626953	-1481.716064453125	975.5857543945312	11.5612154006958	-1475.085205078125	1062.730590820312	88.78981018066406	-1210.267944335938	1194.065551757812	80.16451263427734	-1472.796264648438	1167.828369140625	89.01656341552734	-1400.445068359375	1408.935302734375	85.31275939941406	-1253.369262695312	1317.74462890625	83.3011474609375	-1457.540283203125	1268.69873046875	150.4341430664062	-1425.20458984375	1376.626708984375	-16.06041526794434	-1341.437133789062	1384.2724609375	-72.25045776367188	-1397.649291992188	1277.503662109375	-137.7230377197266	-1431.451904296875	1086.237060546875	-170.9921722412109	-1474.98046875	1071.215209960938	-99.14064788818359	-1359.696533203125	862.78076171875	-158.5610504150391	-1423.37109375	857.3413696289062	-208.1404876708984	-1432.807739257812	981.9976196289062	-189.024658203125	-1373.36572265625	686.3435668945312	-168.0797271728516	-1413.368774414062	772.1366577148438	-209.4715881347656	-1351.711669921875	767.8792724609375	-188.7779541015625	-1343.90966796875	1381.49267578125	239.5325927734375	-1365.491088867188	1318.255249023438	298.4588012695312	-1380.431518554688	1057.232421875	342.4939575195312	-1403.385986328125	1046.647583007812	250.4827728271484	-1296.165649414062	830.263427734375	372.0074768066406	-1355.236572265625	990.8192138671875	358.5632019042969	-1265.303588867188	667.1207275390625	311.1352844238281	-1295.734375	740.2938232421875	369.301513671875	-1357.430419921875	1588.920654296875	163.2652893066406	-1225.66943359375	1591.01806640625	14.33279132843018	-1226.638671875	1599.107055664062	136.7295989990234	-1372.908203125	1576.845092773438	2.322018384933472	-1399.52978515625	967.5745849609375	-100.4603500366211	-1394.433349609375	951.6856689453125	258.2099609375	-1261.067016601562	949.3416748046875	208.4984741210938	-1280.468383789062	960.3999633789062	-53.57627868652344	-1169.443237304688	511.4164733886719	-66.501708984375	-1231.271850585938	638.734130859375	-83.70581817626953	-1297.721435546875	73.79079437255859	-40.17256164550781	-1232.422607421875	280.6451110839844	-67.53273010253906	-1086.574951171875	78.47200775146484	13.0121955871582	-1160.92724609375	75.24545288085938	48.60418701171875	-1172.610107421875	63.32023239135742	-56.99562072753906	-1331.314697265625	76.58116912841797	18.81871223449707	-1426.264526367188	461.7668151855469	219.3370971679688	-1348.756958007812	715.6002197265625	252.7431488037109	-1530.39453125	53.52256393432617	157.9189758300781	-1434.616333007812	335.3688049316406	195.2224578857422	-1356.899169921875	51.11065673828125	88.48347473144531	-1432.266479492188	51.53759384155273	60.79378509521484	-1446.423217773438	46.29898071289062	159.7081756591797	-1606.823486328125	43.40775680541992	107.9879379272461	-1241.778076171875	732.7237548828125	331.220947265625	-1251.16650390625	840.9163818359375	313.8236083984375	nan	nan	nan	nan	nan	nan	
